/* XPM */
static char *_3b98df1bb25401c941e0227974c719aDpKWn4rhjiCrcHHD[] = {
/* columns rows colors chars-per-pixel */
"544 32 11 1 ",
"  c None",
". c #211F30",
"X c #9C1B4D",
"o c #CC3048",
"O c #E44A4A",
"+ c #28860F",
"@ c #72A11D",
"# c #E1CA33",
"$ c #F18B72",
"% c #A4CC42",
"& c #F7EC8A",
/* pixels */
"                                                                                                                                                                                                                                                                                                                                                                                                                                                                                                                                                                ",
"                                                                                                                                                                                                                                                                                                                                                                                                                                                                                                                                                                ",
"                                                                                                                                                                                                                                                                                                                                                                                                                                                                                                                                                                ",
"                                                                                                                                                                                                                                                                                                                                                                                                                                                                                                                                                                ",
"                                                                                                                                                                                                                                                                                                                                                                                                                                                                                                                                                                ",
"                                                                                                                                                                                                                                                                                                                                                                                                                                                                                                                                                                ",
"                                                                                                                                                                                                                                                                                                                                                                                                                                                                                                                                                                ",
"                                                                                                                                                                                                                                                                                                                                                                                                                                                                                                                                                                ",
"                                                                                                                                                                                                              .. ..                           .. ..                           .. ..                                                                                                                                                                                                                                                                             ",
"             ... ...                         ... ...                         ... ...                         ... ...                         ... ...                         ... ...                         .%@.%@.                         .%@.%@.                         .%@.%@.                         ... ...                         ... ...                                                                                                                                                                                                            ",
"             .%@.%@.                         .%@.%@.                         .%@.%@.                         .%@.%@.                         .%@.%@.                         .%@.%@.                         ..+.+..                         ..+.+..                         ..+.+..                         .%@.%@.                         .%@.%@.                        .... ....                       .... ....                       .... ....                       .... ....                        ... ...                         ... ...            ",
"              .+.+.                           .+.+.                           .+.+.                           .+.+.                           .+.+.                           .+.+.                           .oXo.                           .oXo.                           .oXo.                           .+.+.                           .+.+.                         .%%@.%%@.                       .%%@.%%@.                       .%%@.%%@.                       .%%@.%%@.                        .%@.%@.                         .%@.%@.            ",
"             ..oXo..                         ..oXo..                         ..oXo..                         ..oXo..                         ..oXo..                         ..oXo..                         .$OO$$.                         .$OO$$.                         .$OO$$.                         ..oXo..                         ..oXo..                         .++.++.                         .++.++.                         .++.++.                         .++.++.                          .+.+.                           .+.+.             ",
"            .$OOO$$$.                       .$OOO$$$.                       .$OOO$$$.                       .$OOO$$$.                       .$OOO$$$.                        .$OO$$.                        .$O&O&O$.                       .$O&O&O$.                       .$O&O&O$.                        .$OO$$.                         .$OO$$.                         ..oXo..                        ..ooXoo..                       ..ooXoo..                       ..ooXoo..                        ..oXo..                         ..oXo..            ",
"           .$O&OOO&O$.                     .$O&OOO&O$.                     .$O&OOO&O$.                     .$O&OOO&O$.                     .$O&OOO&O$.                      .$&OOO&$.                       .OOoOoOO.                       .OOoOoOO.                       .OOoOoOO.                       .$O&O&O$.                       .$O&O&O$.                       .$OOO$$$.                      .$OOOOO$$$.                     .$OOOOO$$$.                     .$OOOOO$$$.                      .$OOO$$$.                       .$OOO$$$.           ",
"           .OOoOOOoOO.                     .OOoOOOoOO.                     .OOoOOOoOO.                     .OOoOOOoOO.                     .OOoOOOoOO.                      .OoOOOoO.                       .OOOOOOO.                       .OOOOOOO.                       .OOOOOOO.                       .OOoOoOO.                       .OOoOoOO.                      .$O&OOO&O$.                    .$O&OOOOO&O$.                   .$O&OOOOO&O$.                   .$O&OOOOO&O$.                    .$O&OOO&O$.                     .$O&OOO&O$.          ",
"           .OOOO&OOOO.                     .OOOO&OOOO.                     .OOOO&OOOO.                     .OOOO&OOOO.                     .OOOO&OOOO.                      .OOO&OOO.                       .OOO&OOO.                       .OOO&OOO.                       .OOO&OOO.                       .OOO&OOO.                       .OOO&OOO.                      .OOoO&OoOO.                    .OOoOO&OOoOO.                   .OOoOO&OOoOO.                   .OOoOO&OOoOO.                    .OOoO&OoOO.                     .OOoO&OoOO.          ",
"           .o&OOoOO&o.                     .o&OOoOO&o.                     .o&OOoOO&o.                     .o&OOoOO&o.                     .o&OOoOO&o.                      .o&OoO&o.                       .o&OoO&o.                       .o&OoO&o.                       .o&OoO&o.                       .o&OoO&o.                       .o&OoO&o.                      .o&OOoOO&o.                    .o&OOOoOOO&o.                   .o&OOOoOOO&o.                   .o&OOOoOOO&o.                    .o&OOoOO&o.                     .o&OOoOO&o.          ",
"            .oOOOOOo.                       .oOOOOOo.                       .oOOOOOo.                       .oOOOOOo.                       .oOOOOOo.                        .oOOOo.                         .oOOOo.                         .oOOOo.                         .oOOOo.                         .oOOOo.                         .oOOOo.                        .o#OOO#o.                      .o#OOOOO#o.                     .o#OOOOO#o.                     .o#OOOOO#o.                      .o#OOO#o.                       .o#OOO#o.           ",
"            .o#OOO#o.                       .o#OOO#o.                       .o#OOO#o.                       .o#OOO#o.                       .o#OOO#o.                        .o#O#o.                         .oOOOo.                         .oOOOo.                         .oOOOo.                         .o#O#o.                         .o#O#o.                         .ooooo.                        .ooooooo.                       .ooooooo.                       .ooooooo.                        .ooooo.                         .ooooo.            ",
"             .ooooo.                         .ooooo.                         .ooooo.                         .ooooo.                         .ooooo.                          .ooo.                          .o#o#o.                         .o#o#o.                         .o#o#o.                          .ooo.                           .ooo.                           .ooo.                          .ooooo.                         .ooooo.                         .ooooo.                          .ooo.                           .ooo.             ",
"              .ooo.                           .ooo.                           .ooo.                           .ooo.                           .ooo.                           .ooo.                           .ooo.                           .ooo.                           .ooo.                           .ooo.                           .ooo.                            ...                            .....                           .....                           .....                            ...                             ...              ",
"               ...                             ...                             ...                             ...                             ...                             ...                            .ooo.                           .ooo.                           .ooo.                            ...                             ...                                                                                                                                                                                                              ",
"                                                                                                                                                                                                               ...                             ...                             ...                                                                                                                                                                                                                                                                              ",
"                                                                                                                                                                                                                                                                                                                                                                                                                                                                                                                                                                ",
"                                                                                                                                                                                                                                                                                                                                                                                                                                                                                                                                                                ",
"                                                                                                                                                                                                                                                                                                                                                                                                                                                                                                                                                                ",
"                                                                                                                                                                                                                                                                                                                                                                                                                                                                                                                                                                ",
"                                                                                                                                                                                                                                                                                                                                                                                                                                                                                                                                                                ",
"                                                                                                                                                                                                                                                                                                                                                                                                                                                                                                                                                                ",
"                                                                                                                                                                                                                                                                                                                                                                                                                                                                                                                                                                ",
"                                                                                                                                                                                                                                                                                                                                                                                                                                                                                                                                                                "
};
